<svg xmlns="http://www.w3.org/2000/svg" xmlns:xlink="http://www.w3.org/1999/xlink" width="40" zoomAndPan="magnify" viewBox="0 0 30 30.000001" height="40" preserveAspectRatio="xMidYMid meet" version="1.2"><defs><clipPath id="7d9327463c"><path d="M 1.933594 1.453125 L 28.066406 1.453125 L 28.066406 27.582031 L 1.933594 27.582031 Z M 1.933594 1.453125 "/></clipPath><clipPath id="5e50e41466"><path d="M 15 1.453125 C 7.785156 1.453125 1.933594 7.300781 1.933594 14.515625 C 1.933594 21.730469 7.785156 27.582031 15 27.582031 C 22.214844 27.582031 28.066406 21.730469 28.066406 14.515625 C 28.066406 7.300781 22.214844 1.453125 15 1.453125 Z M 15 1.453125 "/></clipPath></defs><g id="fc49df9889"><g clip-rule="nonzero" clip-path="url(#7d9327463c)"><g clip-rule="nonzero" clip-path="url(#5e50e41466)"><path style="fill:none;stroke-width:4;stroke-linecap:butt;stroke-linejoin:miter;stroke:#ffffff;stroke-opacity:1;stroke-miterlimit:4;" d="M 18.000001 0.00208084 C 8.05955 0.00208084 -0.00260332 8.058852 -0.00260332 17.999303 C -0.00260332 27.939755 8.05955 36.001908 18.000001 36.001908 C 27.940452 36.001908 36.002605 27.939755 36.002605 17.999303 C 36.002605 8.058852 27.940452 0.00208084 18.000001 0.00208084 Z M 18.000001 0.00208084 " transform="matrix(0.725806,0,0,0.725806,1.935483,1.451615)"/></g></g><g style="fill:#ffffff;fill-opacity:1;"><g transform="translate(4.904012, 19.688449)"><path style="stroke:none" d="M 4.3125 0.171875 C 3.257812 0.171875 2.40625 -0.234375 1.75 -1.046875 C 1.09375 -1.867188 0.765625 -3.078125 0.765625 -4.671875 C 0.765625 -6.265625 1.097656 -7.472656 1.765625 -8.296875 C 2.429688 -9.128906 3.300781 -9.546875 4.375 -9.546875 C 4.820312 -9.546875 5.210938 -9.484375 5.546875 -9.359375 C 5.890625 -9.234375 6.1875 -9.066406 6.4375 -8.859375 C 6.6875 -8.648438 6.894531 -8.421875 7.0625 -8.171875 L 7.15625 -8.171875 C 7.125 -8.347656 7.082031 -8.609375 7.03125 -8.953125 C 6.988281 -9.304688 6.96875 -9.664062 6.96875 -10.03125 L 6.96875 -13.03125 L 9.53125 -13.03125 L 9.53125 0 L 7.5625 0 L 7.0625 -1.21875 L 6.96875 -1.21875 C 6.800781 -0.957031 6.59375 -0.722656 6.34375 -0.515625 C 6.101562 -0.304688 5.816406 -0.140625 5.484375 -0.015625 C 5.148438 0.109375 4.757812 0.171875 4.3125 0.171875 Z M 5.203125 -1.875 C 5.898438 -1.875 6.390625 -2.078125 6.671875 -2.484375 C 6.960938 -2.898438 7.117188 -3.53125 7.140625 -4.375 L 7.140625 -4.65625 C 7.140625 -5.5625 7 -6.253906 6.71875 -6.734375 C 6.4375 -7.222656 5.914062 -7.46875 5.15625 -7.46875 C 4.59375 -7.46875 4.148438 -7.222656 3.828125 -6.734375 C 3.515625 -6.242188 3.359375 -5.539062 3.359375 -4.625 C 3.359375 -3.71875 3.519531 -3.03125 3.84375 -2.5625 C 4.164062 -2.101562 4.617188 -1.875 5.203125 -1.875 Z M 5.203125 -1.875 "/></g></g><g style="fill:#ffffff;fill-opacity:1;"><g transform="translate(14.228123, 19.688449)"><path style="stroke:none" d="M 6.546875 -9.546875 C 7.609375 -9.546875 8.460938 -9.132812 9.109375 -8.3125 C 9.765625 -7.488281 10.09375 -6.285156 10.09375 -4.703125 C 10.09375 -3.640625 9.9375 -2.742188 9.625 -2.015625 C 9.320312 -1.296875 8.898438 -0.75 8.359375 -0.375 C 7.816406 -0.0078125 7.191406 0.171875 6.484375 0.171875 C 6.035156 0.171875 5.644531 0.113281 5.3125 0 C 4.988281 -0.113281 4.710938 -0.257812 4.484375 -0.4375 C 4.253906 -0.625 4.054688 -0.820312 3.890625 -1.03125 L 3.765625 -1.03125 C 3.804688 -0.800781 3.835938 -0.566406 3.859375 -0.328125 C 3.878906 -0.0976562 3.890625 0.125 3.890625 0.34375 L 3.890625 4.125 L 1.34375 4.125 L 1.34375 -9.359375 L 3.421875 -9.359375 L 3.78125 -8.15625 L 3.890625 -8.15625 C 4.054688 -8.40625 4.257812 -8.632812 4.5 -8.84375 C 4.738281 -9.0625 5.023438 -9.234375 5.359375 -9.359375 C 5.703125 -9.484375 6.097656 -9.546875 6.546875 -9.546875 Z M 5.734375 -7.5 C 5.285156 -7.5 4.925781 -7.40625 4.65625 -7.21875 C 4.394531 -7.03125 4.203125 -6.753906 4.078125 -6.390625 C 3.960938 -6.023438 3.898438 -5.5625 3.890625 -5 L 3.890625 -4.71875 C 3.890625 -4.113281 3.945312 -3.601562 4.0625 -3.1875 C 4.175781 -2.769531 4.367188 -2.453125 4.640625 -2.234375 C 4.910156 -2.015625 5.285156 -1.90625 5.765625 -1.90625 C 6.148438 -1.90625 6.46875 -2.015625 6.71875 -2.234375 C 6.976562 -2.453125 7.171875 -2.769531 7.296875 -3.1875 C 7.421875 -3.601562 7.484375 -4.117188 7.484375 -4.734375 C 7.484375 -5.648438 7.335938 -6.335938 7.046875 -6.796875 C 6.765625 -7.265625 6.328125 -7.5 5.734375 -7.5 Z M 5.734375 -7.5 "/></g></g></g></svg>